# Blender 5.1.2
# www.blender.org
mtllib ventilador_cpu.mtl
o centro
v -0.338828 0.000000 -1.000000
v -0.033342 0.000000 -0.639001
v -0.338828 -0.195090 -0.980785
v -0.033342 -0.124663 -0.626723
v -0.338828 -0.382683 -0.923879
v -0.033342 -0.244535 -0.590360
v -0.338828 -0.555570 -0.831469
v -0.033342 -0.355010 -0.531310
v -0.338828 -0.707107 -0.707107
v -0.033342 -0.451842 -0.451842
v -0.338828 -0.831469 -0.555570
v -0.033342 -0.531310 -0.355010
v -0.338828 -0.923879 -0.382683
v -0.033342 -0.590360 -0.244535
v -0.338828 -0.980785 -0.195090
v -0.033342 -0.626723 -0.124663
v -0.338828 -1.000000 0.000000
v -0.033342 -0.639001 -0.000000
v -0.338828 -0.980785 0.195090
v -0.033342 -0.626723 0.124663
v -0.338828 -0.923880 0.382683
v -0.033342 -0.590360 0.244535
v -0.338828 -0.831470 0.555570
v -0.033342 -0.531310 0.355010
v -0.338828 -0.707107 0.707107
v -0.033342 -0.451842 0.451842
v -0.338828 -0.555570 0.831470
v -0.033342 -0.355010 0.531310
v -0.338828 -0.382684 0.923880
v -0.033342 -0.244535 0.590360
v -0.338828 -0.195090 0.980785
v -0.033342 -0.124663 0.626723
v -0.338828 -0.000000 1.000000
v -0.033342 -0.000000 0.639001
v -0.338828 0.195090 0.980785
v -0.033342 0.124663 0.626723
v -0.338828 0.382683 0.923880
v -0.033342 0.244535 0.590360
v -0.338828 0.555570 0.831470
v -0.033342 0.355010 0.531310
v -0.338828 0.707107 0.707107
v -0.033342 0.451842 0.451842
v -0.338828 0.831470 0.555570
v -0.033342 0.531310 0.355010
v -0.338828 0.923880 0.382684
v -0.033342 0.590360 0.244535
v -0.338828 0.980785 0.195091
v -0.033342 0.626723 0.124663
v -0.338828 1.000000 0.000000
v -0.033342 0.639001 -0.000000
v -0.338828 0.980785 -0.195090
v -0.033342 0.626723 -0.124663
v -0.338828 0.923880 -0.382683
v -0.033342 0.590360 -0.244535
v -0.338828 0.831470 -0.555570
v -0.033342 0.531310 -0.355010
v -0.338828 0.707107 -0.707106
v -0.033342 0.451842 -0.451842
v -0.338828 0.555570 -0.831469
v -0.033342 0.355010 -0.531310
v -0.338828 0.382684 -0.923879
v -0.033342 0.244535 -0.590360
v -0.338828 0.195091 -0.980785
v -0.033342 0.124663 -0.626723
v -0.033342 -0.195090 -0.980785
v -0.033342 0.000000 -1.000000
v -0.033342 -0.382683 -0.923880
v -0.033342 -0.555570 -0.831470
v -0.033342 -0.707107 -0.707107
v -0.033342 -0.831470 -0.555570
v -0.033342 -0.923880 -0.382684
v -0.033342 -0.980785 -0.195091
v -0.033342 -1.000000 -0.000000
v -0.033342 -0.980785 0.195090
v -0.033342 -0.923880 0.382683
v -0.033342 -0.831470 0.555570
v -0.033342 -0.707107 0.707106
v -0.033342 -0.555570 0.831469
v -0.033342 -0.382684 0.923879
v -0.033342 -0.195091 0.980785
v -0.033342 -0.000000 1.000000
v -0.033342 0.195090 0.980785
v -0.033342 0.382683 0.923879
v -0.033342 0.555570 0.831469
v -0.033342 0.707107 0.707107
v -0.033342 0.831469 0.555570
v -0.033342 0.923879 0.382683
v -0.033342 0.980785 0.195090
v -0.033342 1.000000 0.000000
v -0.033342 0.980785 -0.195090
v -0.033342 0.923880 -0.382683
v -0.033342 0.831470 -0.555570
v -0.033342 0.707107 -0.707107
v -0.033342 0.555570 -0.831470
v -0.033342 0.382684 -0.923880
v -0.033342 0.195090 -0.980785
v -0.033342 -0.186381 -0.937002
v -0.033342 0.000000 -0.955359
v -0.033342 -0.365600 -0.882637
v -0.033342 -0.530769 -0.794352
v -0.033342 -0.675541 -0.675541
v -0.033342 -0.794352 -0.530769
v -0.033342 -0.882637 -0.365600
v -0.033342 -0.937002 -0.186382
v -0.033342 -0.955359 -0.000000
v -0.033342 -0.937002 0.186381
v -0.033342 -0.882637 0.365600
v -0.033342 -0.794352 0.530769
v -0.033342 -0.675541 0.675541
v -0.033342 -0.530769 0.794352
v -0.033342 -0.365600 0.882637
v -0.033342 -0.186382 0.937002
v -0.033342 -0.000000 0.955359
v -0.033342 0.186381 0.937002
v -0.033342 0.365600 0.882637
v -0.033342 0.530769 0.794352
v -0.033342 0.675541 0.675541
v -0.033342 0.794352 0.530769
v -0.033342 0.882637 0.365600
v -0.033342 0.937002 0.186381
v -0.033342 0.955359 0.000000
v -0.033342 0.937002 -0.186381
v -0.033342 0.882637 -0.365600
v -0.033342 0.794352 -0.530769
v -0.033342 0.675541 -0.675541
v -0.033342 0.530769 -0.794352
v -0.033342 0.365600 -0.882637
v -0.033342 0.186381 -0.937002
v -0.033342 -0.172725 -0.868345
v -0.033342 0.000000 -0.885357
v -0.033342 -0.338812 -0.817964
v -0.033342 -0.491878 -0.736148
v -0.033342 -0.626042 -0.626042
v -0.033342 -0.736148 -0.491878
v -0.033342 -0.817964 -0.338812
v -0.033342 -0.868346 -0.172725
v -0.033342 -0.885357 -0.000000
v -0.033342 -0.868346 0.172724
v -0.033342 -0.817964 0.338811
v -0.033342 -0.736148 0.491878
v -0.033342 -0.626042 0.626042
v -0.033342 -0.491878 0.736147
v -0.033342 -0.338812 0.817963
v -0.033342 -0.172725 0.868345
v -0.033342 -0.000000 0.885357
v -0.033342 0.172725 0.868345
v -0.033342 0.338811 0.817963
v -0.033342 0.491878 0.736148
v -0.033342 0.626042 0.626042
v -0.033342 0.736148 0.491878
v -0.033342 0.817963 0.338812
v -0.033342 0.868345 0.172725
v -0.033342 0.885357 0.000000
v -0.033342 0.868345 -0.172725
v -0.033342 0.817963 -0.338812
v -0.033342 0.736148 -0.491878
v -0.033342 0.626042 -0.626042
v -0.033342 0.491878 -0.736148
v -0.033342 0.338812 -0.817964
v -0.033342 0.172725 -0.868345
v -0.109761 -0.172725 -0.868345
v -0.109761 0.000000 -0.885357
v -0.109761 -0.338812 -0.817964
v -0.109761 -0.491878 -0.736148
v -0.109761 -0.626042 -0.626042
v -0.109761 -0.736148 -0.491878
v -0.109761 -0.817964 -0.338812
v -0.109761 -0.868346 -0.172725
v -0.109761 -0.885357 -0.000000
v -0.109761 -0.868346 0.172724
v -0.109761 -0.817964 0.338811
v -0.109761 -0.736148 0.491878
v -0.109761 -0.626042 0.626042
v -0.109761 -0.491878 0.736147
v -0.109761 -0.338812 0.817963
v -0.109761 -0.172725 0.868345
v -0.109761 -0.000000 0.885357
v -0.109761 0.172725 0.868345
v -0.109761 0.338811 0.817963
v -0.109761 0.491878 0.736148
v -0.109761 0.626042 0.626042
v -0.109761 0.736148 0.491878
v -0.109761 0.817963 0.338812
v -0.109761 0.868345 0.172725
v -0.109761 0.885357 0.000000
v -0.109761 0.868345 -0.172725
v -0.109761 0.817963 -0.338812
v -0.109761 0.736148 -0.491878
v -0.109761 0.626042 -0.626042
v -0.109761 0.491878 -0.736148
v -0.109761 0.338812 -0.817964
v -0.109761 0.172725 -0.868345
v -0.109761 -0.158912 -0.798906
v -0.109761 0.000000 -0.814558
v -0.109761 -0.311718 -0.752553
v -0.109761 -0.452544 -0.677280
v -0.109761 -0.575979 -0.575980
v -0.109761 -0.677280 -0.452544
v -0.109761 -0.752553 -0.311718
v -0.109761 -0.798906 -0.158913
v -0.109761 -0.814558 -0.000000
v -0.109761 -0.798906 0.158912
v -0.109761 -0.752553 0.311718
v -0.109761 -0.677280 0.452544
v -0.109761 -0.575980 0.575979
v -0.109761 -0.452544 0.677280
v -0.109761 -0.311718 0.752553
v -0.109761 -0.158913 0.798906
v -0.109761 -0.000000 0.814558
v -0.109761 0.158912 0.798906
v -0.109761 0.311718 0.752553
v -0.109761 0.452544 0.677280
v -0.109761 0.575979 0.575979
v -0.109761 0.677280 0.452544
v -0.109761 0.752553 0.311718
v -0.109761 0.798906 0.158912
v -0.109761 0.814558 0.000000
v -0.109761 0.798906 -0.158912
v -0.109761 0.752553 -0.311718
v -0.109761 0.677280 -0.452544
v -0.109761 0.575979 -0.575979
v -0.109761 0.452544 -0.677280
v -0.109761 0.311718 -0.752553
v -0.109761 0.158912 -0.798906
v -0.398432 0.000000 -1.000000
v -0.398432 -0.195090 -0.980785
v -0.398432 -0.382683 -0.923879
v -0.398432 -0.555570 -0.831469
v -0.398432 -0.707107 -0.707107
v -0.398432 -0.831469 -0.555570
v -0.398432 -0.923879 -0.382683
v -0.398432 -0.980785 -0.195090
v -0.398432 -1.000000 0.000000
v -0.398432 -0.980785 0.195090
v -0.398432 -0.923880 0.382683
v -0.398432 -0.831470 0.555570
v -0.398432 -0.707107 0.707107
v -0.398432 -0.555570 0.831470
v -0.398432 -0.382684 0.923880
v -0.398432 -0.195090 0.980785
v -0.398432 -0.000000 1.000000
v -0.398432 0.195090 0.980785
v -0.398432 0.382683 0.923880
v -0.398432 0.555570 0.831470
v -0.398432 0.707107 0.707107
v -0.398432 0.831470 0.555570
v -0.398432 0.923880 0.382684
v -0.398432 0.980785 0.195091
v -0.398432 1.000000 0.000000
v -0.398432 0.980785 -0.195090
v -0.398432 0.923880 -0.382683
v -0.398432 0.831470 -0.555570
v -0.398432 0.707107 -0.707106
v -0.398432 0.555570 -0.831469
v -0.398432 0.382684 -0.923879
v -0.398432 0.195091 -0.980785
v -0.784535 0.000000 -1.000000
v -0.784535 -0.195090 -0.980785
v -0.784535 -0.382683 -0.923879
v -0.784535 -0.555570 -0.831469
v -0.784535 -0.707107 -0.707107
v -0.784535 -0.831469 -0.555570
v -0.784535 -0.923879 -0.382683
v -0.784535 -0.980785 -0.195090
v -0.784535 -1.000000 0.000000
v -0.784535 -0.980785 0.195090
v -0.784535 -0.923880 0.382683
v -0.784535 -0.831470 0.555570
v -0.784535 -0.707107 0.707107
v -0.784535 -0.555570 0.831470
v -0.784535 -0.382684 0.923880
v -0.784535 -0.195090 0.980785
v -0.784535 -0.000000 1.000000
v -0.784535 0.195090 0.980785
v -0.784535 0.382683 0.923880
v -0.784535 0.555570 0.831470
v -0.784535 0.707107 0.707107
v -0.784535 0.831470 0.555570
v -0.784535 0.923880 0.382684
v -0.784535 0.980785 0.195091
v -0.784535 1.000000 0.000000
v -0.784535 0.980785 -0.195090
v -0.784535 0.923880 -0.382683
v -0.784535 0.831470 -0.555570
v -0.784535 0.707107 -0.707106
v -0.784535 0.555570 -0.831469
v -0.784535 0.382684 -0.923879
v -0.784535 0.195091 -0.980785
v -0.033342 -0.158912 -0.798906
v -0.033342 0.000000 -0.814558
v -0.033342 -0.311718 -0.752553
v -0.033342 -0.452544 -0.677280
v -0.033342 -0.575979 -0.575980
v -0.033342 -0.677280 -0.452544
v -0.033342 -0.752553 -0.311718
v -0.033342 -0.798906 -0.158913
v -0.033342 -0.814558 -0.000000
v -0.033342 -0.798906 0.158912
v -0.033342 -0.752553 0.311718
v -0.033342 -0.677280 0.452544
v -0.033342 -0.575980 0.575979
v -0.033342 -0.452544 0.677280
v -0.033342 -0.311718 0.752553
v -0.033342 -0.158913 0.798906
v -0.033342 -0.000000 0.814558
v -0.033342 0.158912 0.798906
v -0.033342 0.311718 0.752553
v -0.033342 0.452544 0.677280
v -0.033342 0.575979 0.575979
v -0.033342 0.677280 0.452544
v -0.033342 0.752553 0.311718
v -0.033342 0.798906 0.158912
v -0.033342 0.814558 0.000000
v -0.033342 0.798906 -0.158912
v -0.033342 0.752553 -0.311718
v -0.033342 0.677280 -0.452544
v -0.033342 0.575979 -0.575979
v -0.033342 0.452544 -0.677280
v -0.033342 0.311718 -0.752553
v -0.033342 0.158912 -0.798906
v -0.186085 1.587656 0.353276
v -0.186085 0.881105 0.353276
v -0.186085 1.587656 -0.353276
v -0.186085 0.881105 -0.353276
vn -0.0000 -0.0980 -0.9952
vn -0.0000 -0.2903 -0.9569
vn -0.0000 -0.4714 -0.8819
vn -0.0000 -0.6344 -0.7730
vn -0.0000 -0.7730 -0.6344
vn -0.0000 -0.8819 -0.4714
vn -0.0000 -0.9569 -0.2903
vn -0.0000 -0.9952 -0.0980
vn -0.0000 -0.9952 0.0980
vn -0.0000 -0.9569 0.2903
vn -0.0000 -0.8819 0.4714
vn -0.0000 -0.7730 0.6344
vn -0.0000 -0.6344 0.7730
vn -0.0000 -0.4714 0.8819
vn -0.0000 -0.2903 0.9569
vn -0.0000 -0.0980 0.9952
vn -0.0000 0.0980 0.9952
vn -0.0000 0.2903 0.9569
vn -0.0000 0.4714 0.8819
vn -0.0000 0.6344 0.7730
vn -0.0000 0.7730 0.6344
vn -0.0000 0.8819 0.4714
vn -0.0000 0.9569 0.2903
vn -0.0000 0.9952 0.0980
vn -0.0000 0.9952 -0.0980
vn -0.0000 0.9569 -0.2903
vn -0.0000 0.8819 -0.4714
vn -0.0000 0.7730 -0.6344
vn -0.0000 0.6344 -0.7730
vn -0.0000 0.4714 -0.8819
vn 1.0000 -0.0000 -0.0000
vn -0.0000 0.2903 -0.9569
vn -0.0000 0.0980 -0.9952
vn -1.0000 -0.0000 -0.0000
vt 1.000000 0.500000
vt 1.000000 1.000000
vt 0.968750 1.000000
vt 0.968750 0.500000
vt 0.937500 1.000000
vt 0.937500 0.500000
vt 0.906250 1.000000
vt 0.906250 0.500000
vt 0.875000 1.000000
vt 0.875000 0.500000
vt 0.843750 1.000000
vt 0.843750 0.500000
vt 0.812500 1.000000
vt 0.812500 0.500000
vt 0.781250 1.000000
vt 0.781250 0.500000
vt 0.750000 1.000000
vt 0.750000 0.500000
vt 0.718750 1.000000
vt 0.718750 0.500000
vt 0.687500 1.000000
vt 0.687500 0.500000
vt 0.656250 1.000000
vt 0.656250 0.500000
vt 0.625000 1.000000
vt 0.625000 0.500000
vt 0.593750 1.000000
vt 0.593750 0.500000
vt 0.562500 1.000000
vt 0.562500 0.500000
vt 0.531250 1.000000
vt 0.531250 0.500000
vt 0.500000 1.000000
vt 0.500000 0.500000
vt 0.468750 1.000000
vt 0.468750 0.500000
vt 0.437500 1.000000
vt 0.437500 0.500000
vt 0.406250 1.000000
vt 0.406250 0.500000
vt 0.375000 1.000000
vt 0.375000 0.500000
vt 0.343750 1.000000
vt 0.343750 0.500000
vt 0.312500 1.000000
vt 0.312500 0.500000
vt 0.281250 1.000000
vt 0.281250 0.500000
vt 0.250000 1.000000
vt 0.250000 0.500000
vt 0.218750 1.000000
vt 0.218750 0.500000
vt 0.187500 1.000000
vt 0.187500 0.500000
vt 0.156250 1.000000
vt 0.156250 0.500000
vt 0.125000 1.000000
vt 0.125000 0.500000
vt 0.093750 1.000000
vt 0.093750 0.500000
vt 0.062500 1.000000
vt 0.062500 0.500000
vt 0.279919 0.400413
vt 0.250000 0.403360
vt 0.220081 0.400413
vt 0.191312 0.391687
vt 0.164798 0.377514
vt 0.141558 0.358442
vt 0.122486 0.335202
vt 0.108314 0.308688
vt 0.099587 0.279919
vt 0.096640 0.250000
vt 0.099587 0.220081
vt 0.108314 0.191312
vt 0.122486 0.164798
vt 0.141558 0.141558
vt 0.164798 0.122486
vt 0.191312 0.108314
vt 0.220081 0.099587
vt 0.250000 0.096640
vt 0.279919 0.099587
vt 0.308688 0.108314
vt 0.335202 0.122486
vt 0.358442 0.141558
vt 0.377514 0.164798
vt 0.391686 0.191312
vt 0.400413 0.220081
vt 0.403360 0.250000
vt 0.400414 0.279919
vt 0.391686 0.308688
vt 0.377514 0.335202
vt 0.358442 0.358442
vt 0.335202 0.377514
vt 0.308688 0.391686
vt 0.031250 1.000000
vt 0.031250 0.500000
vt 0.000000 1.000000
vt 0.000000 0.500000
vt 0.250000 0.479286
vt 0.294731 0.474880
vt 0.296822 0.485388
vt 0.250000 0.490000
vt 0.337744 0.461833
vt 0.341844 0.471731
vt 0.377385 0.440645
vt 0.383337 0.449553
vt 0.412130 0.412130
vt 0.419706 0.419706
vt 0.440645 0.377385
vt 0.449553 0.383337
vt 0.461833 0.337744
vt 0.471731 0.341844
vt 0.474881 0.294732
vt 0.485388 0.296822
vt 0.479286 0.250000
vt 0.490000 0.250000
vt 0.474881 0.205268
vt 0.485388 0.203178
vt 0.461833 0.162256
vt 0.471731 0.158156
vt 0.440645 0.122615
vt 0.449553 0.116663
vt 0.412130 0.087870
vt 0.419706 0.080294
vt 0.377385 0.059355
vt 0.383337 0.050447
vt 0.337744 0.038167
vt 0.341844 0.028269
vt 0.294732 0.025119
vt 0.296822 0.014612
vt 0.250000 0.020714
vt 0.250000 0.010000
vt 0.205268 0.025119
vt 0.203178 0.014612
vt 0.162256 0.038167
vt 0.158156 0.028269
vt 0.122615 0.059355
vt 0.116663 0.050447
vt 0.087870 0.087870
vt 0.080294 0.080294
vt 0.059355 0.122615
vt 0.050447 0.116663
vt 0.038167 0.162256
vt 0.028269 0.158156
vt 0.025119 0.205268
vt 0.014612 0.203178
vt 0.020714 0.250000
vt 0.010000 0.250000
vt 0.025119 0.294731
vt 0.014612 0.296822
vt 0.038167 0.337744
vt 0.028269 0.341844
vt 0.059355 0.377385
vt 0.050447 0.383337
vt 0.087870 0.412130
vt 0.080294 0.419706
vt 0.122615 0.440644
vt 0.116663 0.449553
vt 0.162256 0.461833
vt 0.158156 0.471731
vt 0.205268 0.474880
vt 0.203178 0.485388
vt 0.250000 0.462486
vt 0.291454 0.458403
vt 0.331315 0.446311
vt 0.368051 0.426675
vt 0.400250 0.400250
vt 0.426675 0.368051
vt 0.446311 0.331315
vt 0.458403 0.291454
vt 0.462486 0.250000
vt 0.458403 0.208546
vt 0.446311 0.168685
vt 0.426675 0.131949
vt 0.400250 0.099750
vt 0.368051 0.073325
vt 0.331315 0.053689
vt 0.291454 0.041597
vt 0.250000 0.037514
vt 0.208546 0.041597
vt 0.168685 0.053689
vt 0.131949 0.073325
vt 0.099750 0.099750
vt 0.073325 0.131949
vt 0.053689 0.168685
vt 0.041597 0.208546
vt 0.037514 0.250000
vt 0.041597 0.291454
vt 0.053689 0.331315
vt 0.073325 0.368051
vt 0.099750 0.400250
vt 0.131949 0.426675
vt 0.168685 0.446311
vt 0.208546 0.458403
vt 0.069387 0.175188
vt 0.058262 0.211861
vt 0.087453 0.141389
vt 0.111765 0.111765
vt 0.141389 0.087453
vt 0.175188 0.069387
vt 0.211861 0.058262
vt 0.250000 0.054506
vt 0.288139 0.058262
vt 0.324812 0.069387
vt 0.358611 0.087453
vt 0.388235 0.111765
vt 0.412547 0.141389
vt 0.430613 0.175188
vt 0.250000 0.445494
vt 0.288139 0.441737
vt 0.324812 0.430613
vt 0.358611 0.412547
vt 0.388235 0.388235
vt 0.412547 0.358611
vt 0.430613 0.324812
vt 0.441738 0.288139
vt 0.445494 0.250000
vt 0.441738 0.211861
vt 0.054506 0.250000
vt 0.058262 0.288139
vt 0.069387 0.324812
vt 0.087453 0.358611
vt 0.111765 0.388235
vt 0.141389 0.412547
vt 0.175188 0.430613
vt 0.211861 0.441737
vt 0.000000 0.000000
s 0
f 1/1/1 66/2/1 65/3/1 3/4/1
f 3/4/2 65/3/2 67/5/2 5/6/2
f 5/6/3 67/5/3 68/7/3 7/8/3
f 7/8/4 68/7/4 69/9/4 9/10/4
f 9/10/5 69/9/5 70/11/5 11/12/5
f 11/12/6 70/11/6 71/13/6 13/14/6
f 13/14/7 71/13/7 72/15/7 15/16/7
f 15/16/8 72/15/8 73/17/8 17/18/8
f 17/18/9 73/17/9 74/19/9 19/20/9
f 19/20/10 74/19/10 75/21/10 21/22/10
f 21/22/11 75/21/11 76/23/11 23/24/11
f 23/24/12 76/23/12 77/25/12 25/26/12
f 25/26/13 77/25/13 78/27/13 27/28/13
f 27/28/14 78/27/14 79/29/14 29/30/14
f 29/30/15 79/29/15 80/31/15 31/32/15
f 31/32/16 80/31/16 81/33/16 33/34/16
f 33/34/17 81/33/17 82/35/17 35/36/17
f 35/36/18 82/35/18 83/37/18 37/38/18
f 37/38/19 83/37/19 84/39/19 39/40/19
f 39/40/20 84/39/20 85/41/20 41/42/20
f 41/42/21 85/41/21 86/43/21 43/44/21
f 43/44/22 86/43/22 87/45/22 45/46/22
f 45/46/23 87/45/23 88/47/23 47/48/23
f 47/48/24 88/47/24 89/49/24 49/50/24
f 49/50/25 89/49/25 90/51/25 51/52/25
f 51/52/26 90/51/26 91/53/26 53/54/26
f 53/54/27 91/53/27 92/55/27 55/56/27
f 55/56/28 92/55/28 93/57/28 57/58/28
f 57/58/29 93/57/29 94/59/29 59/60/29
f 59/60/30 94/59/30 95/61/30 61/62/30
f 4/63/31 2/64/31 64/65/31 62/66/31 60/67/31 58/68/31 56/69/31 54/70/31 52/71/31 50/72/31 48/73/31 46/74/31 44/75/31 42/76/31 40/77/31 38/78/31 36/79/31 34/80/31 32/81/31 30/82/31 28/83/31 26/84/31 24/85/31 22/86/31 20/87/31 18/88/31 16/89/31 14/90/31 12/91/31 10/92/31 8/93/31 6/94/31
f 61/62/32 95/61/32 96/95/32 63/96/32
f 63/96/33 96/95/33 66/97/33 1/98/33
f 98/99/31 97/100/31 65/101/31 66/102/31
f 97/100/31 99/103/31 67/104/31 65/101/31
f 99/103/31 100/105/31 68/106/31 67/104/31
f 100/105/31 101/107/31 69/108/31 68/106/31
f 101/107/31 102/109/31 70/110/31 69/108/31
f 102/109/31 103/111/31 71/112/31 70/110/31
f 103/111/31 104/113/31 72/114/31 71/112/31
f 104/113/31 105/115/31 73/116/31 72/114/31
f 105/115/31 106/117/31 74/118/31 73/116/31
f 106/117/31 107/119/31 75/120/31 74/118/31
f 107/119/31 108/121/31 76/122/31 75/120/31
f 108/121/31 109/123/31 77/124/31 76/122/31
f 109/123/31 110/125/31 78/126/31 77/124/31
f 110/125/31 111/127/31 79/128/31 78/126/31
f 111/127/31 112/129/31 80/130/31 79/128/31
f 112/129/31 113/131/31 81/132/31 80/130/31
f 113/131/31 114/133/31 82/134/31 81/132/31
f 114/133/31 115/135/31 83/136/31 82/134/31
f 115/135/31 116/137/31 84/138/31 83/136/31
f 116/137/31 117/139/31 85/140/31 84/138/31
f 117/139/31 118/141/31 86/142/31 85/140/31
f 118/141/31 119/143/31 87/144/31 86/142/31
f 119/143/31 120/145/31 88/146/31 87/144/31
f 120/145/31 121/147/31 89/148/31 88/146/31
f 121/147/31 122/149/31 90/150/31 89/148/31
f 122/149/31 123/151/31 91/152/31 90/150/31
f 123/151/31 124/153/31 92/154/31 91/152/31
f 124/153/31 125/155/31 93/156/31 92/154/31
f 125/155/31 126/157/31 94/158/31 93/156/31
f 126/157/31 127/159/31 95/160/31 94/158/31
f 127/159/31 128/161/31 96/162/31 95/160/31
f 128/161/31 98/99/31 66/102/31 96/162/31
f 130/163/31 129/164/31 97/100/31 98/99/31
f 129/164/31 131/165/31 99/103/31 97/100/31
f 131/165/31 132/166/31 100/105/31 99/103/31
f 132/166/31 133/167/31 101/107/31 100/105/31
f 133/167/31 134/168/31 102/109/31 101/107/31
f 134/168/31 135/169/31 103/111/31 102/109/31
f 135/169/31 136/170/31 104/113/31 103/111/31
f 136/170/31 137/171/31 105/115/31 104/113/31
f 137/171/31 138/172/31 106/117/31 105/115/31
f 138/172/31 139/173/31 107/119/31 106/117/31
f 139/173/31 140/174/31 108/121/31 107/119/31
f 140/174/31 141/175/31 109/123/31 108/121/31
f 141/175/31 142/176/31 110/125/31 109/123/31
f 142/176/31 143/177/31 111/127/31 110/125/31
f 143/177/31 144/178/31 112/129/31 111/127/31
f 144/178/31 145/179/31 113/131/31 112/129/31
f 145/179/31 146/180/31 114/133/31 113/131/31
f 146/180/31 147/181/31 115/135/31 114/133/31
f 147/181/31 148/182/31 116/137/31 115/135/31
f 148/182/31 149/183/31 117/139/31 116/137/31
f 149/183/31 150/184/31 118/141/31 117/139/31
f 150/184/31 151/185/31 119/143/31 118/141/31
f 151/185/31 152/186/31 120/145/31 119/143/31
f 152/186/31 153/187/31 121/147/31 120/145/31
f 153/187/31 154/188/31 122/149/31 121/147/31
f 154/188/31 155/189/31 123/151/31 122/149/31
f 155/189/31 156/190/31 124/153/31 123/151/31
f 156/190/31 157/191/31 125/155/31 124/153/31
f 157/191/31 158/192/31 126/157/31 125/155/31
f 158/192/31 159/193/31 127/159/31 126/157/31
f 159/193/31 160/194/31 128/161/31 127/159/31
f 160/194/31 130/163/31 98/99/31 128/161/31
f 138/172/25 137/171/25 169/171/25 170/172/25
f 311/195/23 312/196/23 216/196/23 215/195/23
f 137/171/24 136/170/24 168/170/24 169/171/24
f 310/197/22 311/195/22 215/195/22 214/197/22
f 136/170/23 135/169/23 167/169/23 168/170/23
f 309/198/21 310/197/21 214/197/21 213/198/21
f 135/169/22 134/168/22 166/168/22 167/169/22
f 130/163/16 160/194/16 192/194/16 162/163/16
f 308/199/20 309/198/20 213/198/20 212/199/20
f 134/168/21 133/167/21 165/167/21 166/168/21
f 160/194/15 159/193/15 191/193/15 192/194/15
f 307/200/19 308/199/19 212/199/19 211/200/19
f 133/167/20 132/166/20 164/166/20 165/167/20
f 159/193/14 158/192/14 190/192/14 191/193/14
f 306/201/18 307/200/18 211/200/18 210/201/18
f 132/166/19 131/165/19 163/165/19 164/166/19
f 158/192/13 157/191/13 189/191/13 190/192/13
f 305/202/17 306/201/17 210/201/17 209/202/17
f 131/165/18 129/164/18 161/164/18 163/165/18
f 157/191/12 156/190/12 188/190/12 189/191/12
f 304/203/16 305/202/16 209/202/16 208/203/16
f 129/164/17 130/163/17 162/163/17 161/164/17
f 156/190/11 155/189/11 187/189/11 188/190/11
f 303/204/15 304/203/15 208/203/15 207/204/15
f 155/189/10 154/188/10 186/188/10 187/189/10
f 302/205/14 303/204/14 207/204/14 206/205/14
f 154/188/9 153/187/9 185/187/9 186/188/9
f 301/206/13 302/205/13 206/205/13 205/206/13
f 153/187/8 152/186/8 184/186/8 185/187/8
f 300/207/12 301/206/12 205/206/12 204/207/12
f 152/186/7 151/185/7 183/185/7 184/186/7
f 299/208/11 300/207/11 204/207/11 203/208/11
f 194/209/31 193/210/31 161/164/31 162/163/31
f 193/210/31 195/211/31 163/165/31 161/164/31
f 195/211/31 196/212/31 164/166/31 163/165/31
f 196/212/31 197/213/31 165/167/31 164/166/31
f 197/213/31 198/214/31 166/168/31 165/167/31
f 198/214/31 199/215/31 167/169/31 166/168/31
f 199/215/31 200/216/31 168/170/31 167/169/31
f 200/216/31 201/217/31 169/171/31 168/170/31
f 201/217/31 202/218/31 170/172/31 169/171/31
f 202/218/31 203/208/31 171/173/31 170/172/31
f 203/208/31 204/207/31 172/174/31 171/173/31
f 204/207/31 205/206/31 173/175/31 172/174/31
f 205/206/31 206/205/31 174/176/31 173/175/31
f 206/205/31 207/204/31 175/177/31 174/176/31
f 207/204/31 208/203/31 176/178/31 175/177/31
f 208/203/31 209/202/31 177/179/31 176/178/31
f 209/202/31 210/201/31 178/180/31 177/179/31
f 210/201/31 211/200/31 179/181/31 178/180/31
f 211/200/31 212/199/31 180/182/31 179/181/31
f 212/199/31 213/198/31 181/183/31 180/182/31
f 213/198/31 214/197/31 182/184/31 181/183/31
f 214/197/31 215/195/31 183/185/31 182/184/31
f 215/195/31 216/196/31 184/186/31 183/185/31
f 216/196/31 217/219/31 185/187/31 184/186/31
f 217/219/31 218/220/31 186/188/31 185/187/31
f 218/220/31 219/221/31 187/189/31 186/188/31
f 219/221/31 220/222/31 188/190/31 187/189/31
f 220/222/31 221/223/31 189/191/31 188/190/31
f 221/223/31 222/224/31 190/192/31 189/191/31
f 222/224/31 223/225/31 191/193/31 190/192/31
f 223/225/31 224/226/31 192/194/31 191/193/31
f 224/226/31 194/209/31 162/163/31 192/194/31
f 312/196/24 313/219/24 217/219/24 216/196/24
f 139/173/26 138/172/26 170/172/26 171/173/26
f 313/219/25 314/220/25 218/220/25 217/219/25
f 140/174/27 139/173/27 171/173/27 172/174/27
f 314/220/26 315/221/26 219/221/26 218/220/26
f 141/175/28 140/174/28 172/174/28 173/175/28
f 315/221/27 316/222/27 220/222/27 219/221/27
f 290/209/1 289/210/1 193/210/1 194/209/1
f 142/176/29 141/175/29 173/175/29 174/176/29
f 316/222/28 317/223/28 221/223/28 220/222/28
f 289/210/2 291/211/2 195/211/2 193/210/2
f 143/177/30 142/176/30 174/176/30 175/177/30
f 317/223/29 318/224/29 222/224/29 221/223/29
f 291/211/3 292/212/3 196/212/3 195/211/3
f 144/178/32 143/177/32 175/177/32 176/178/32
f 318/224/30 319/225/30 223/225/30 222/224/30
f 292/212/4 293/213/4 197/213/4 196/212/4
f 145/179/33 144/178/33 176/178/33 177/179/33
f 319/225/32 320/226/32 224/226/32 223/225/32
f 293/213/5 294/214/5 198/214/5 197/213/5
f 146/180/1 145/179/1 177/179/1 178/180/1
f 320/226/33 290/209/33 194/209/33 224/226/33
f 294/214/6 295/215/6 199/215/6 198/214/6
f 147/181/2 146/180/2 178/180/2 179/181/2
f 295/215/7 296/216/7 200/216/7 199/215/7
f 148/182/3 147/181/3 179/181/3 180/182/3
f 296/216/8 297/217/8 201/217/8 200/216/8
f 149/183/4 148/182/4 180/182/4 181/183/4
f 297/217/9 298/218/9 202/218/9 201/217/9
f 150/184/5 149/183/5 181/183/5 182/184/5
f 298/218/10 299/208/10 203/208/10 202/218/10
f 151/185/6 150/184/6 182/184/6 183/185/6
f 247/227/22 279/227/22 278/227/22 246/227/22
f 234/227/9 266/227/9 265/227/9 233/227/9
f 248/227/23 280/227/23 279/227/23 247/227/23
f 235/227/10 267/227/10 266/227/10 234/227/10
f 249/227/24 281/227/24 280/227/24 248/227/24
f 236/227/11 268/227/11 267/227/11 235/227/11
f 250/227/25 282/227/25 281/227/25 249/227/25
f 237/227/12 269/227/12 268/227/12 236/227/12
f 251/227/26 283/227/26 282/227/26 250/227/26
f 238/227/13 270/227/13 269/227/13 237/227/13
f 252/227/27 284/227/27 283/227/27 251/227/27
f 239/227/14 271/227/14 270/227/14 238/227/14
f 226/227/1 258/227/1 257/227/1 225/227/1
f 253/227/28 285/227/28 284/227/28 252/227/28
f 240/227/15 272/227/15 271/227/15 239/227/15
f 227/227/2 259/227/2 258/227/2 226/227/2
f 254/227/29 286/227/29 285/227/29 253/227/29
f 241/227/16 273/227/16 272/227/16 240/227/16
f 228/227/3 260/227/3 259/227/3 227/227/3
f 255/227/30 287/227/30 286/227/30 254/227/30
f 242/227/17 274/227/17 273/227/17 241/227/17
f 229/227/4 261/227/4 260/227/4 228/227/4
f 256/227/32 288/227/32 287/227/32 255/227/32
f 243/227/18 275/227/18 274/227/18 242/227/18
f 230/227/5 262/227/5 261/227/5 229/227/5
f 225/227/33 257/227/33 288/227/33 256/227/33
f 244/227/19 276/227/19 275/227/19 243/227/19
f 231/227/6 263/227/6 262/227/6 230/227/6
f 245/227/20 277/227/20 276/227/20 244/227/20
f 232/227/7 264/227/7 263/227/7 231/227/7
f 246/227/21 278/227/21 277/227/21 245/227/21
f 233/227/8 265/227/8 264/227/8 232/227/8
f 257/227/34 258/227/34 259/227/34 260/227/34 261/227/34 262/227/34 263/227/34 264/227/34 265/227/34 266/227/34 267/227/34 268/227/34 269/227/34 270/227/34 271/227/34 272/227/34 273/227/34 274/227/34 275/227/34 276/227/34 277/227/34 278/227/34 279/227/34 280/227/34 281/227/34 282/227/34 283/227/34 284/227/34 285/227/34 286/227/34 287/227/34 288/227/34
f 2/64/31 4/63/31 289/210/31 290/209/31
f 4/63/31 6/94/31 291/211/31 289/210/31
f 6/94/31 8/93/31 292/212/31 291/211/31
f 8/93/31 10/92/31 293/213/31 292/212/31
f 10/92/31 12/91/31 294/214/31 293/213/31
f 12/91/31 14/90/31 295/215/31 294/214/31
f 14/90/31 16/89/31 296/216/31 295/215/31
f 16/89/31 18/88/31 297/217/31 296/216/31
f 18/88/31 20/87/31 298/218/31 297/217/31
f 20/87/31 22/86/31 299/208/31 298/218/31
f 22/86/31 24/85/31 300/207/31 299/208/31
f 24/85/31 26/84/31 301/206/31 300/207/31
f 26/84/31 28/83/31 302/205/31 301/206/31
f 28/83/31 30/82/31 303/204/31 302/205/31
f 30/82/31 32/81/31 304/203/31 303/204/31
f 32/81/31 34/80/31 305/202/31 304/203/31
f 34/80/31 36/79/31 306/201/31 305/202/31
f 36/79/31 38/78/31 307/200/31 306/201/31
f 38/78/31 40/77/31 308/199/31 307/200/31
f 40/77/31 42/76/31 309/198/31 308/199/31
f 42/76/31 44/75/31 310/197/31 309/198/31
f 44/75/31 46/74/31 311/195/31 310/197/31
f 46/74/31 48/73/31 312/196/31 311/195/31
f 48/73/31 50/72/31 313/219/31 312/196/31
f 50/72/31 52/71/31 314/220/31 313/219/31
f 52/71/31 54/70/31 315/221/31 314/220/31
f 54/70/31 56/69/31 316/222/31 315/221/31
f 56/69/31 58/68/31 317/223/31 316/222/31
f 58/68/31 60/67/31 318/224/31 317/223/31
f 60/67/31 62/66/31 319/225/31 318/224/31
f 62/66/31 64/65/31 320/226/31 319/225/31
f 64/65/31 2/64/31 290/209/31 320/226/31
o aspas
v -0.536687 -1.485139 0.660908
v -0.480360 -0.816645 0.310161
v -0.718606 -1.056075 1.250175
v -0.617223 -0.493848 0.753484
v -0.772395 -1.278747 0.916782
v -0.693539 -0.663387 0.493063
v -0.463792 -1.482780 0.681695
v -0.407465 -0.814286 0.330948
v -0.645711 -1.053716 1.270961
v -0.544327 -0.491489 0.774270
v -0.699499 -1.276388 0.937568
v -0.620644 -0.661028 0.513849
v -0.341413 1.630298 0.350348
v -0.372253 0.881177 0.245721
v -0.570899 1.646331 -0.364847
v -0.544902 0.893239 -0.292341
v -0.599051 1.637794 0.038590
v -0.601472 0.886688 0.022529
v -0.269222 1.632700 0.327238
v -0.300062 0.883579 0.222611
v -0.498708 1.648733 -0.387957
v -0.472711 0.895641 -0.315452
v -0.526860 1.640197 0.015480
v -0.529282 0.889091 -0.000581
v -0.353629 0.832585 -1.442570
v -0.379791 0.501021 -0.762525
v -0.570977 0.153493 -1.679250
v -0.543309 -0.009880 -0.940587
v -0.605954 0.533984 -1.546474
v -0.605201 0.286516 -0.837120
v -0.281065 0.812607 -1.451883
v -0.307228 0.481043 -0.771839
v -0.498413 0.133514 -1.688564
v -0.470745 -0.029858 -0.949900
v -0.533390 0.514005 -1.555787
v -0.532638 0.266537 -0.846433
v -0.332265 -1.119030 -1.238139
v -0.368711 -0.575327 -0.712651
v -0.542932 -1.557755 -0.665807
v -0.527202 -0.905392 -0.282068
v -0.581631 -1.314505 -0.986678
v -0.591989 -0.716472 -0.532065
v -0.259477 -1.132800 -1.221903
v -0.295923 -0.589097 -0.696415
v -0.470144 -1.571525 -0.649571
v -0.454413 -0.919163 -0.265832
v -0.508843 -1.328275 -0.970442
v -0.519201 -0.730242 -0.515828
v -0.571754 0.217116 1.600752
v -0.503936 0.086685 0.858143
v -0.661441 0.927612 1.373649
v -0.571410 0.621212 0.687286
v -0.764757 0.550561 1.477499
v -0.685832 0.332146 0.763013
v -0.497136 0.228752 1.607687
v -0.429318 0.098321 0.865078
v -0.586823 0.939248 1.380584
v -0.496792 0.632849 0.694222
v -0.690139 0.562197 1.484435
v -0.611214 0.343782 0.769949
vn -0.9751 0.2086 0.0759
vn -0.7742 -0.2652 -0.5747
vn 0.9751 -0.2086 -0.0759
vn 0.7742 0.2652 0.5747
vn -0.1349 -0.8138 0.5653
vn 0.1358 0.8116 -0.5682
vn -0.1294 -0.8267 0.5476
vn 0.1285 0.8288 -0.5447
vn -0.2241 0.6676 0.7100
vn 0.2566 -0.4659 -0.8468
vn -0.9929 -0.0200 -0.1175
vn -0.7395 -0.0377 0.6721
vn 0.9929 0.0200 0.1175
vn 0.7395 0.0377 -0.6721
vn -0.0271 0.9994 0.0193
vn 0.0282 -0.9995 -0.0157
vn -0.0202 0.9990 0.0407
vn 0.0191 -0.9988 -0.0443
vn -0.3002 -0.1017 -0.9484
vn 0.3060 -0.1440 0.9411
vn -0.9906 -0.1352 -0.0189
vn -0.7507 0.6146 0.2424
vn 0.9906 0.1352 0.0189
vn 0.7507 -0.6146 -0.2424
vn -0.0313 0.3268 -0.9446
vn 0.0323 -0.3234 0.9457
vn -0.0248 0.3471 -0.9375
vn 0.0237 -0.3505 0.9363
vn -0.2837 -0.9385 -0.1969
vn 0.2906 0.8556 0.4283
vn -0.9896 -0.0770 0.1211
vn -0.7571 0.4074 -0.5108
vn 0.9896 0.0770 -0.1211
vn 0.7571 -0.4074 0.5108
vn -0.0165 -0.7977 -0.6028
vn 0.0175 0.7999 0.5999
vn -0.0101 -0.7846 -0.6200
vn 0.0091 0.7824 0.6227
vn -0.2766 -0.4823 0.8312
vn 0.2799 0.6768 -0.6809
vn -0.9448 0.2526 -0.2086
vn -0.8458 -0.5318 0.0421
vn 0.9448 -0.2526 0.2086
vn 0.8458 0.5318 -0.0421
vn -0.1342 0.2972 0.9454
vn 0.1346 -0.3006 -0.9442
vn -0.1315 0.2758 0.9522
vn 0.1311 -0.2723 -0.9532
vn -0.1021 0.9033 -0.4166
vn 0.1348 -0.9738 0.1833
vt 0.000000 0.500000
vt 0.000000 1.000000
vt 1.000000 1.000000
vt 1.000000 0.500000
vt 0.000000 0.000000
vt 1.000000 0.000000
s 0
f 329/228/35 327/229/35 328/230/35 330/231/35
f 325/232/36 329/228/36 330/231/36 326/233/36
f 335/228/37 336/231/37 334/230/37 333/229/37
f 331/232/38 332/233/38 336/231/38 335/228/38
f 327/229/39 329/228/39 335/228/39 333/229/39
f 330/231/40 328/230/40 334/230/40 336/231/40
f 329/228/41 325/232/41 331/232/41 335/228/41
f 326/233/42 330/231/42 336/231/42 332/233/42
f 328/230/43 327/229/43 333/229/43 334/230/43
f 325/232/44 326/233/44 332/233/44 331/232/44
f 341/228/45 339/229/45 340/230/45 342/231/45
f 337/232/46 341/228/46 342/231/46 338/233/46
f 347/228/47 348/231/47 346/230/47 345/229/47
f 343/232/48 344/233/48 348/231/48 347/228/48
f 339/229/49 341/228/49 347/228/49 345/229/49
f 342/231/50 340/230/50 346/230/50 348/231/50
f 341/228/51 337/232/51 343/232/51 347/228/51
f 338/233/52 342/231/52 348/231/52 344/233/52
f 340/230/53 339/229/53 345/229/53 346/230/53
f 337/232/54 338/233/54 344/233/54 343/232/54
f 353/228/55 351/229/55 352/230/55 354/231/55
f 349/232/56 353/228/56 354/231/56 350/233/56
f 359/228/57 360/231/57 358/230/57 357/229/57
f 355/232/58 356/233/58 360/231/58 359/228/58
f 351/229/59 353/228/59 359/228/59 357/229/59
f 354/231/60 352/230/60 358/230/60 360/231/60
f 353/228/61 349/232/61 355/232/61 359/228/61
f 350/233/62 354/231/62 360/231/62 356/233/62
f 352/230/63 351/229/63 357/229/63 358/230/63
f 349/232/64 350/233/64 356/233/64 355/232/64
f 365/228/65 363/229/65 364/230/65 366/231/65
f 361/232/66 365/228/66 366/231/66 362/233/66
f 371/228/67 372/231/67 370/230/67 369/229/67
f 367/232/68 368/233/68 372/231/68 371/228/68
f 363/229/69 365/228/69 371/228/69 369/229/69
f 366/231/70 364/230/70 370/230/70 372/231/70
f 365/228/71 361/232/71 367/232/71 371/228/71
f 362/233/72 366/231/72 372/231/72 368/233/72
f 364/230/73 363/229/73 369/229/73 370/230/73
f 361/232/74 362/233/74 368/233/74 367/232/74
f 377/228/75 375/229/75 376/230/75 378/231/75
f 373/232/76 377/228/76 378/231/76 374/233/76
f 383/228/77 384/231/77 382/230/77 381/229/77
f 379/232/78 380/233/78 384/231/78 383/228/78
f 375/229/79 377/228/79 383/228/79 381/229/79
f 378/231/80 376/230/80 382/230/80 384/231/80
f 377/228/81 373/232/81 379/232/81 383/228/81
f 374/233/82 378/231/82 384/231/82 380/233/82
f 376/230/83 375/229/83 381/229/83 382/230/83
f 373/232/84 374/233/84 380/233/84 379/232/84
o Carcasa
v 0.000000 0.000000 -1.788091
v -0.000000 0.348839 -1.753734
v -0.000000 0.684273 -1.651981
v -0.000000 0.993410 -1.486744
v -0.000000 1.264372 -1.264372
v -0.000000 1.486744 -0.993410
v -0.000000 1.651981 -0.684273
v -0.000000 1.753734 -0.348839
v -0.000000 1.788091 0.000000
v -0.000000 1.753734 0.348839
v -0.000000 1.651981 0.684273
v -0.000000 1.486744 0.993410
v -0.000000 1.264372 1.264372
v -0.000000 0.993410 1.486744
v -0.000000 0.684273 1.651981
v -0.000000 0.348839 1.753734
v 0.000000 0.000000 1.788091
v 0.000000 -0.348839 1.753734
v 0.000000 -0.684273 1.651981
v 0.000000 -0.993410 1.486744
v 0.000000 -1.264372 1.264372
v 0.000000 -1.486744 0.993410
v 0.000000 -1.651981 0.684273
v 0.000000 -1.753734 0.348839
v 0.000000 -1.788091 0.000000
v 0.000000 -1.753734 -0.348839
v 0.000000 -1.651981 -0.684273
v 0.000000 -1.486744 -0.993410
v 0.000000 -1.264372 -1.264372
v 0.000000 -0.993410 -1.486744
v 0.000000 -0.684273 -1.651981
v 0.000000 -0.348839 -1.753734
v -0.000000 0.000001 -2.100000
v -0.000000 0.499401 -2.100000
v -0.000000 0.979610 -2.100000
v -0.000000 1.975657 -2.128437
v -0.000000 1.975657 -1.810086
v 0.000000 1.975657 -1.422176
v 0.000000 1.975657 -0.979612
v 0.000000 1.975657 -0.499402
v 0.000000 1.975657 0.000000
v 0.000000 1.975657 0.499402
v 0.000000 1.975657 0.979612
v 0.000000 1.975657 1.422176
v -0.000000 1.975657 1.810086
v -0.000000 1.975657 2.128437
v -0.000000 0.979612 2.100000
v -0.000000 0.499402 2.100000
v 0.000000 0.000000 2.100000
v 0.000000 -0.499402 2.100000
v 0.000000 -0.979612 2.100000
v 0.000000 -1.975657 2.128437
v 0.000000 -1.975657 1.810086
v 0.000000 -1.975657 1.422176
v 0.000000 -1.975657 0.979612
v 0.000000 -1.975657 0.499402
v 0.000000 -1.975657 0.000000
v 0.000000 -1.975657 -0.499402
v 0.000000 -1.975657 -0.979612
v 0.000000 -1.975657 -1.422176
v 0.000000 -1.975657 -1.810086
v 0.000000 -1.975657 -2.128437
v 0.000000 -0.979611 -2.100000
v 0.000000 -0.499401 -2.100000
v 0.000000 1.975657 -1.422176
v 0.000000 1.975657 -0.979612
v 0.000000 1.975657 -0.499402
v 0.000000 1.975657 0.000000
v 0.000000 1.975657 0.499402
v 0.000000 1.975657 0.979612
v 0.000000 1.975657 1.422176
v -0.125264 0.348839 -1.753734
v -0.125264 0.000000 -1.788091
v -0.125264 0.684273 -1.651981
v -0.125264 0.993410 -1.486744
v -0.125264 1.264372 -1.264372
v -0.125264 1.486744 -0.993410
v -0.125264 1.651981 -0.684273
v -0.125264 1.753734 -0.348839
v -0.125264 1.788091 0.000000
v -0.125264 1.753734 0.348839
v -0.125264 1.651981 0.684273
v -0.125264 1.486744 0.993410
v -0.125264 1.264372 1.264372
v -0.125264 0.993410 1.486744
v -0.125264 0.684273 1.651981
v -0.125264 0.348839 1.753734
v -0.125264 0.000000 1.788091
v -0.125264 -0.348839 1.753734
v -0.125264 -0.684273 1.651981
v -0.125264 -0.993410 1.486744
v -0.125264 -1.264372 1.264372
v -0.125264 -1.486744 0.993410
v -0.125264 -1.651981 0.684273
v -0.125264 -1.753734 0.348839
v -0.125264 -1.788091 0.000000
v -0.125264 -1.753734 -0.348839
v -0.125264 -1.651981 -0.684273
v -0.125264 -1.486744 -0.993410
v -0.125264 -1.264372 -1.264372
v -0.125264 -0.993410 -1.486744
v -0.125264 -0.684273 -1.651981
v -0.125264 -0.348839 -1.753734
v -0.125264 0.499401 -2.100000
v -0.125264 0.000001 -2.100000
v -0.125264 0.979610 -2.100000
v -0.125264 1.975657 -2.128437
v -0.125264 1.975657 -1.810086
v -0.125264 1.975657 -1.422176
v -0.125264 1.975657 -0.979612
v -0.125264 1.975657 -0.499402
v -0.125264 1.975657 0.000000
v -0.125264 1.975657 0.499402
v -0.125264 1.975657 0.979612
v -0.125264 1.975657 1.422176
v -0.125264 1.975657 1.810086
v -0.125264 1.975657 2.128437
v -0.125264 0.979612 2.100000
v -0.125264 0.499402 2.100000
v -0.125264 0.000000 2.100000
v -0.125264 -0.499402 2.100000
v -0.125264 -0.979612 2.100000
v -0.125264 -1.975657 2.128437
v -0.125264 -1.975657 1.810086
v -0.125264 -1.975657 1.422176
v -0.125264 -1.975657 0.979612
v -0.125264 -1.975657 0.499402
v -0.125264 -1.975657 0.000000
v -0.125264 -1.975657 -0.499402
v -0.125264 -1.975657 -0.979612
v -0.125264 -1.975657 -1.422176
v -0.125264 -1.975657 -1.810086
v -0.125264 -1.975657 -2.128437
v -0.125264 -0.979611 -2.100000
v -0.125264 -0.499401 -2.100000
v -0.125264 1.975657 -0.979612
v -0.125264 1.975657 -1.422176
v -0.125264 1.975657 -0.499402
v -0.125264 1.975657 0.000000
v -0.125264 1.975657 0.499402
v -0.125264 1.975657 0.979612
v -0.125264 1.975657 1.422176
v -0.743812 0.000000 -1.788091
v -0.743812 0.348839 -1.753734
v -0.743812 0.684273 -1.651981
v -0.743812 0.993410 -1.486744
v -0.743812 1.264372 -1.264372
v -0.743812 1.486744 -0.993410
v -0.743812 1.651981 -0.684273
v -0.743812 1.753734 -0.348839
v -0.743812 1.788091 0.000000
v -0.743812 1.753734 0.348839
v -0.743812 1.651981 0.684273
v -0.743812 1.486744 0.993410
v -0.743812 1.264372 1.264372
v -0.743812 0.993410 1.486744
v -0.743812 0.684273 1.651981
v -0.743812 0.348839 1.753734
v -0.743812 0.000000 1.788091
v -0.743812 -0.348839 1.753734
v -0.743812 -0.684273 1.651981
v -0.743812 -0.993410 1.486744
v -0.743812 -1.264371 1.264372
v -0.743812 -1.486744 0.993410
v -0.743812 -1.651981 0.684273
v -0.743812 -1.753734 0.348839
v -0.743812 -1.788091 0.000000
v -0.743812 -1.753734 -0.348839
v -0.743812 -1.651981 -0.684273
v -0.743812 -1.486744 -0.993410
v -0.743812 -1.264371 -1.264372
v -0.743812 -0.993410 -1.486744
v -0.743812 -0.684273 -1.651981
v -0.743812 -0.348839 -1.753734
v -0.743812 0.000001 -2.100000
v -0.743812 0.499401 -2.100000
v -0.743812 0.979610 -2.100000
v -0.743812 1.975657 -2.128437
v -0.743812 1.975657 -1.810086
v -0.743812 1.975657 -1.422176
v -0.743812 1.975657 -0.979612
v -0.743812 1.975657 -0.499402
v -0.743812 1.975657 0.000000
v -0.743812 1.975657 0.499402
v -0.743812 1.975657 0.979612
v -0.743812 1.975657 1.422176
v -0.743812 1.975657 1.810086
v -0.743812 1.975657 2.128437
v -0.743812 0.979612 2.100000
v -0.743812 0.499402 2.100000
v -0.743812 0.000000 2.100000
v -0.743812 -0.499402 2.100000
v -0.743812 -0.979612 2.100000
v -0.743812 -1.975657 2.128437
v -0.743812 -1.975657 1.810086
v -0.743812 -1.975657 1.422176
v -0.743812 -1.975657 0.979612
v -0.743812 -1.975657 0.499402
v -0.743812 -1.975657 0.000000
v -0.743812 -1.975657 -0.499402
v -0.743812 -1.975657 -0.979612
v -0.743812 -1.975657 -1.422176
v -0.743812 -1.975657 -1.810086
v -0.743812 -1.975657 -2.128437
v -0.743812 -0.979611 -2.100000
v -0.743812 -0.499401 -2.100000
v -0.743812 1.975657 -1.422176
v -0.743812 1.975657 -0.979612
v -0.743812 1.975657 -0.499402
v -0.743812 1.975657 0.000000
v -0.743812 1.975657 0.499402
v -0.743812 1.975657 0.979612
v -0.743812 1.975657 1.422176
v -0.869077 0.348839 -1.753734
v -0.869077 0.000000 -1.788091
v -0.869077 0.684273 -1.651981
v -0.869077 0.993410 -1.486744
v -0.869077 1.264372 -1.264372
v -0.869077 1.486744 -0.993410
v -0.869077 1.651981 -0.684273
v -0.869077 1.753734 -0.348839
v -0.869077 1.788091 0.000000
v -0.869077 1.753734 0.348839
v -0.869077 1.651981 0.684273
v -0.869077 1.486744 0.993410
v -0.869077 1.264372 1.264372
v -0.869077 0.993410 1.486744
v -0.869077 0.684273 1.651981
v -0.869077 0.348839 1.753734
v -0.869077 0.000000 1.788091
v -0.869077 -0.348839 1.753734
v -0.869077 -0.684273 1.651981
v -0.869077 -0.993410 1.486744
v -0.869076 -1.264372 1.264372
v -0.869076 -1.486744 0.993410
v -0.869076 -1.651981 0.684273
v -0.869076 -1.753734 0.348839
v -0.869076 -1.788091 0.000000
v -0.869076 -1.753734 -0.348839
v -0.869076 -1.651981 -0.684273
v -0.869076 -1.486744 -0.993410
v -0.869076 -1.264372 -1.264372
v -0.869077 -0.993410 -1.486744
v -0.869077 -0.684273 -1.651981
v -0.869077 -0.348839 -1.753734
v -0.869077 0.499401 -2.100000
v -0.869077 0.000001 -2.100000
v -0.869077 0.979610 -2.100000
v -0.869077 1.975657 -2.128437
v -0.869077 1.975657 -1.810086
v -0.869076 1.975657 -1.422176
v -0.869076 1.975657 -0.979612
v -0.869076 1.975657 -0.499402
v -0.869076 1.975657 0.000000
v -0.869076 1.975657 0.499402
v -0.869076 1.975657 0.979612
v -0.869076 1.975657 1.422176
v -0.869077 1.975657 1.810086
v -0.869077 1.975657 2.128437
v -0.869077 0.979612 2.100000
v -0.869077 0.499402 2.100000
v -0.869077 0.000000 2.100000
v -0.869077 -0.499402 2.100000
v -0.869077 -0.979612 2.100000
v -0.869076 -1.975657 2.128437
v -0.869076 -1.975657 1.810086
v -0.869076 -1.975657 1.422176
v -0.869076 -1.975657 0.979612
v -0.869076 -1.975657 0.499402
v -0.869076 -1.975657 0.000000
v -0.869076 -1.975657 -0.499402
v -0.869076 -1.975657 -0.979612
v -0.869076 -1.975657 -1.422176
v -0.869076 -1.975657 -1.810086
v -0.869076 -1.975657 -2.128437
v -0.869077 -0.979611 -2.100000
v -0.869077 -0.499401 -2.100000
v -0.869076 1.975657 -0.979612
v -0.869076 1.975657 -1.422176
v -0.869076 1.975657 -0.499402
v -0.869076 1.975657 0.000000
v -0.869076 1.975657 0.499402
v -0.869076 1.975657 0.979612
v -0.869076 1.975657 1.422176
v -0.373656 0.993410 -1.486744
v -0.373656 0.684273 -1.651981
v -0.373656 1.264372 -1.264372
v -0.373656 1.486744 -0.993410
v -0.373656 1.264372 1.264372
v -0.373656 1.486744 0.993410
v -0.373656 0.993410 1.486744
v -0.373656 0.684273 1.651981
v -0.373656 -0.993410 1.486744
v -0.373656 -0.684273 1.651981
v -0.373656 -1.264372 1.264372
v -0.373656 -1.486744 0.993410
v -0.373656 -1.264372 -1.264372
v -0.373656 -1.486744 -0.993410
v -0.373656 -0.993410 -1.486744
v -0.373656 -0.684273 -1.651981
v -0.373656 1.975657 -2.128437
v -0.373656 0.979610 -2.100000
v -0.373656 1.975657 -1.810086
v -0.373656 1.975657 -1.422176
v -0.373656 1.975657 1.810086
v -0.373656 1.975657 1.422176
v -0.373656 1.975657 2.128437
v -0.373656 0.979612 2.100000
v -0.373656 -1.975657 2.128437
v -0.373656 -0.979612 2.100000
v -0.373656 -1.975657 1.810086
v -0.373656 -1.975657 1.422176
v -0.373656 -1.975657 -1.810086
v -0.373656 -1.975657 -1.422176
v -0.373656 -1.975657 -2.128437
v -0.373656 -0.979611 -2.100000
v -0.483875 0.993410 -1.486744
v -0.483875 0.684273 -1.651981
v -0.483875 1.264372 -1.264372
v -0.483875 1.486744 -0.993410
v -0.483875 1.264372 1.264372
v -0.483875 1.486744 0.993410
v -0.483875 0.993410 1.486744
v -0.483875 0.684273 1.651981
v -0.483875 -0.993410 1.486744
v -0.483875 -0.684273 1.651981
v -0.483875 -1.264371 1.264372
v -0.483874 -1.486744 0.993410
v -0.483875 -1.264371 -1.264372
v -0.483874 -1.486744 -0.993410
v -0.483875 -0.993410 -1.486744
v -0.483875 -0.684273 -1.651981
v -0.483875 1.975657 -2.128437
v -0.483875 0.979610 -2.100000
v -0.483875 1.975657 -1.810086
v -0.483874 1.975657 -1.422176
v -0.483875 1.975657 1.810086
v -0.483874 1.975657 1.422176
v -0.483875 1.975657 2.128437
v -0.483875 0.979612 2.100000
v -0.483874 -1.975657 2.128437
v -0.483875 -0.979612 2.100000
v -0.483874 -1.975657 1.810086
v -0.483874 -1.975657 1.422176
v -0.483874 -1.975657 -1.810086
v -0.483874 -1.975657 -1.422176
v -0.483874 -1.975657 -2.128437
v -0.483875 -0.979611 -2.100000
vn 1.0000 -0.0000 -0.0000
vn -1.0000 -0.0000 -0.0000
vn -0.0000 -0.4714 -0.8819
vn -0.0000 -0.8349 0.5504
vn -0.0000 0.8349 0.5504
vn -0.0000 -0.6344 -0.7730
vn -0.0000 -0.6593 0.7518
vn -0.0000 -1.0000 -0.0000
vn -0.0000 -0.7730 -0.6344
vn -0.0000 0.0285 0.9996
vn -0.0000 1.0000 -0.0000
vn -0.0000 0.8349 -0.5504
vn -0.0000 -0.2903 -0.9569
vn -0.0000 -0.0980 -0.9952
vn -0.0000 0.0980 -0.9952
vn -0.0000 0.2903 -0.9569
vn -0.0000 0.4714 -0.8819
vn -0.0000 -0.0285 0.9996
vn -0.0000 0.6344 -0.7730
vn -0.0000 -0.0000 1.0000
vn -0.0000 0.7730 -0.6344
vn -0.0000 0.8819 -0.4714
vn -0.0000 0.9569 -0.2903
vn -0.0000 0.9952 -0.0980
vn -0.0000 0.9952 0.0980
vn -0.0000 0.9569 0.2903
vn -0.0000 0.8819 0.4714
vn -0.0000 -0.0980 0.9952
vn -0.0000 0.7730 0.6344
vn -0.0000 -0.2903 0.9569
vn -0.0000 0.6344 0.7730
vn -0.0000 -0.4714 0.8819
vn -0.0000 0.4714 0.8819
vn -0.0000 -0.6344 0.7730
vn -0.0000 0.2903 0.9569
vn -0.0000 -0.7730 0.6344
vn -0.0000 0.0980 0.9952
vn -0.0000 -0.8819 0.4714
vn -0.0000 -0.0000 -1.0000
vn -0.0000 -0.9569 0.2903
vn -0.0000 -0.9952 0.0980
vn -0.0000 -0.0285 -0.9996
vn -0.0000 -0.9952 -0.0980
vn -0.0000 0.0285 -0.9996
vn -0.0000 -0.9569 -0.2903
vn -0.0000 -0.8819 -0.4714
vn -0.0000 -0.8349 -0.5504
vn -0.0000 -0.6593 -0.7518
vn -0.0000 0.6593 0.7518
vn -0.0000 0.6593 -0.7518
vt 0.000000 0.000000
s 0
f 392/234/85 391/234/85 423/234/85 424/234/85
f 406/234/85 405/234/85 437/234/85 438/234/85
f 393/234/85 392/234/85 424/234/85 425/234/85
f 407/234/85 406/234/85 438/234/85 439/234/85
f 394/234/85 393/234/85 425/234/85 426/234/85
f 408/234/85 407/234/85 439/234/85 440/234/85
f 395/234/85 394/234/85 426/234/85 427/234/85
f 409/234/85 408/234/85 440/234/85 441/234/85
f 396/234/85 395/234/85 427/234/85 428/234/85
f 410/234/85 409/234/85 441/234/85 442/234/85
f 397/234/85 396/234/85 428/234/85 429/234/85
f 411/234/85 410/234/85 442/234/85 443/234/85
f 398/234/85 397/234/85 429/234/85 430/234/85
f 412/234/85 411/234/85 443/234/85 444/234/85
f 399/234/85 398/234/85 430/234/85 431/234/85
f 386/234/85 385/234/85 417/234/85 418/234/85
f 413/234/85 412/234/85 444/234/85 445/234/85
f 400/234/85 399/234/85 431/234/85 432/234/85
f 387/234/85 386/234/85 418/234/85 419/234/85
f 414/234/85 413/234/85 445/234/85 446/234/85
f 401/234/85 400/234/85 432/234/85 433/234/85
f 388/234/85 387/234/85 419/234/85 420/234/85
f 415/234/85 414/234/85 446/234/85 447/234/85
f 402/234/85 401/234/85 433/234/85 434/234/85
f 389/234/85 388/234/85 420/234/85 421/234/85
f 416/234/85 415/234/85 447/234/85 448/234/85
f 403/234/85 402/234/85 434/234/85 435/234/85
f 390/234/85 389/234/85 421/234/85 422/234/85
f 385/234/85 416/234/85 448/234/85 417/234/85
f 404/234/85 403/234/85 435/234/85 436/234/85
f 391/234/85 390/234/85 422/234/85 423/234/85
f 405/234/85 404/234/85 436/234/85 437/234/85
f 463/234/86 495/234/86 494/234/86 462/234/86
f 470/234/87 676/234/87 675/234/87 469/234/87
f 464/234/86 496/234/86 495/234/86 463/234/86
f 478/234/86 510/234/86 509/234/86 477/234/86
f 465/234/86 497/234/86 496/234/86 464/234/86
f 479/234/86 511/234/86 510/234/86 478/234/86
f 466/234/86 498/234/86 497/234/86 465/234/86
f 480/234/86 512/234/86 511/234/86 479/234/86
f 467/234/86 499/234/86 498/234/86 466/234/86
f 481/234/86 513/234/86 512/234/86 480/234/86
f 502/234/88 692/234/88 676/234/88 470/234/88
f 482/234/86 514/234/86 513/234/86 481/234/86
f 474/234/89 678/234/89 694/234/89 506/234/89
f 483/234/86 515/234/86 514/234/86 482/234/86
f 469/234/90 675/234/90 673/234/90 468/234/90
f 456/234/86 488/234/86 489/234/86 457/234/86
f 483/234/91 682/234/91 698/234/91 515/234/91
f 471/234/86 503/234/86 502/234/86 470/234/86
f 458/234/86 490/234/86 488/234/86 456/234/86
f 508/234/92 695/234/92 696/234/92 509/234/92
f 472/234/86 504/234/86 503/234/86 471/234/86
f 468/234/93 673/234/93 674/234/93 467/234/93
f 507/234/92 693/234/92 695/234/92 508/234/92
f 473/234/86 505/234/86 504/234/86 472/234/86
f 506/234/94 694/234/94 693/234/94 507/234/94
f 487/234/86 519/234/86 518/234/86 486/234/86
f 474/234/86 506/234/86 505/234/86 473/234/86
f 492/234/95 687/234/95 688/234/95 493/234/95
f 457/234/86 489/234/86 519/234/86 487/234/86
f 518/234/96 700/234/96 684/234/96 486/234/96
f 462/234/86 494/234/86 493/234/86 461/234/86
f 491/234/95 685/234/95 687/234/95 492/234/95
f 425/234/95 496/234/95 497/234/95 426/234/95
f 400/234/97 471/234/97 470/234/97 399/234/97
f 426/234/95 497/234/95 498/234/95 427/234/95
f 401/234/98 472/234/98 471/234/98 400/234/98
f 427/234/95 498/234/95 499/234/95 428/234/95
f 402/234/99 473/234/99 472/234/99 401/234/99
f 428/234/95 499/234/95 500/234/95 429/234/95
f 403/234/100 474/234/100 473/234/100 402/234/100
f 450/234/95 449/234/95 521/234/95 520/234/95
f 429/234/95 500/234/95 501/234/95 430/234/95
f 404/234/101 475/234/101 474/234/101 403/234/101
f 451/234/95 450/234/95 520/234/95 522/234/95
f 430/234/102 501/234/102 502/234/102 431/234/102
f 405/234/103 476/234/103 475/234/103 404/234/103
f 452/234/95 451/234/95 522/234/95 523/234/95
f 431/234/104 502/234/104 503/234/104 432/234/104
f 406/234/105 477/234/105 476/234/105 405/234/105
f 453/234/95 452/234/95 523/234/95 524/234/95
f 432/234/104 503/234/104 504/234/104 433/234/104
f 407/234/106 478/234/106 477/234/106 406/234/106
f 454/234/95 453/234/95 524/234/95 525/234/95
f 433/234/104 504/234/104 505/234/104 434/234/104
f 408/234/107 479/234/107 478/234/107 407/234/107
f 455/234/95 454/234/95 525/234/95 526/234/95
f 434/234/104 505/234/104 506/234/104 435/234/104
f 409/234/108 480/234/108 479/234/108 408/234/108
f 435/234/94 506/234/94 507/234/94 436/234/94
f 410/234/109 481/234/109 480/234/109 409/234/109
f 436/234/92 507/234/92 508/234/92 437/234/92
f 411/234/110 482/234/110 481/234/110 410/234/110
f 437/234/92 508/234/92 509/234/92 438/234/92
f 412/234/111 483/234/111 482/234/111 411/234/111
f 386/234/112 456/234/112 457/234/112 385/234/112
f 438/234/92 509/234/92 510/234/92 439/234/92
f 413/234/113 484/234/113 483/234/113 412/234/113
f 387/234/114 458/234/114 456/234/114 386/234/114
f 439/234/92 510/234/92 511/234/92 440/234/92
f 414/234/115 485/234/115 484/234/115 413/234/115
f 388/234/116 459/234/116 458/234/116 387/234/116
f 440/234/92 511/234/92 512/234/92 441/234/92
f 415/234/117 486/234/117 485/234/117 414/234/117
f 389/234/118 460/234/118 459/234/118 388/234/118
f 441/234/92 512/234/92 513/234/92 442/234/92
f 416/234/119 487/234/119 486/234/119 415/234/119
f 390/234/120 461/234/120 460/234/120 389/234/120
f 442/234/92 513/234/92 514/234/92 443/234/92
f 385/234/121 457/234/121 487/234/121 416/234/121
f 391/234/122 462/234/122 461/234/122 390/234/122
f 443/234/92 514/234/92 515/234/92 444/234/92
f 417/234/123 489/234/123 488/234/123 418/234/123
f 392/234/124 463/234/124 462/234/124 391/234/124
f 444/234/92 515/234/92 516/234/92 445/234/92
f 418/234/123 488/234/123 490/234/123 419/234/123
f 393/234/125 464/234/125 463/234/125 392/234/125
f 445/234/92 516/234/92 517/234/92 446/234/92
f 419/234/126 490/234/126 491/234/126 420/234/126
f 394/234/127 465/234/127 464/234/127 393/234/127
f 446/234/128 517/234/128 518/234/128 447/234/128
f 420/234/95 491/234/95 492/234/95 421/234/95
f 395/234/129 466/234/129 465/234/129 394/234/129
f 447/234/123 518/234/123 519/234/123 448/234/123
f 421/234/95 492/234/95 493/234/95 422/234/95
f 396/234/130 467/234/130 466/234/130 395/234/130
f 448/234/123 519/234/123 489/234/123 417/234/123
f 422/234/95 493/234/95 494/234/95 423/234/95
f 397/234/93 468/234/93 467/234/93 396/234/93
f 423/234/95 494/234/95 495/234/95 424/234/95
f 398/234/90 469/234/90 468/234/90 397/234/90
f 424/234/95 495/234/95 496/234/95 425/234/95
f 399/234/87 470/234/87 469/234/87 398/234/87
f 534/234/85 533/234/85 565/234/85 566/234/85
f 546/234/103 709/234/103 711/234/103 547/234/103
f 535/234/85 534/234/85 566/234/85 567/234/85
f 549/234/85 548/234/85 580/234/85 581/234/85
f 536/234/85 535/234/85 567/234/85 568/234/85
f 550/234/85 549/234/85 581/234/85 582/234/85
f 537/234/85 536/234/85 568/234/85 569/234/85
f 551/234/85 550/234/85 582/234/85 583/234/85
f 538/234/85 537/234/85 569/234/85 570/234/85
f 552/234/85 551/234/85 583/234/85 584/234/85
f 587/234/92 729/234/92 730/234/92 586/234/92
f 553/234/85 552/234/85 584/234/85 585/234/85
f 573/234/102 724/234/102 723/234/102 572/234/102
f 554/234/85 553/234/85 585/234/85 586/234/85
f 545/234/101 710/234/101 709/234/101 546/234/101
f 528/234/85 527/234/85 559/234/85 560/234/85
f 561/234/131 718/234/131 702/234/131 529/234/131
f 542/234/85 541/234/85 573/234/85 574/234/85
f 529/234/85 528/234/85 560/234/85 561/234/85
f 531/234/120 703/234/120 704/234/120 532/234/120
f 543/234/85 542/234/85 574/234/85 575/234/85
f 572/234/95 723/234/95 721/234/95 571/234/95
f 530/234/118 701/234/118 703/234/118 531/234/118
f 544/234/85 543/234/85 575/234/85 576/234/85
f 571/234/95 721/234/95 722/234/95 570/234/95
f 558/234/85 557/234/85 589/234/85 590/234/85
f 545/234/85 544/234/85 576/234/85 577/234/85
f 556/234/117 715/234/117 716/234/117 557/234/117
f 527/234/85 558/234/85 590/234/85 559/234/85
f 529/234/116 702/234/116 701/234/116 530/234/116
f 533/234/85 532/234/85 564/234/85 565/234/85
f 555/234/115 713/234/115 715/234/115 556/234/115
f 605/234/86 637/234/86 636/234/86 604/234/86
f 619/234/86 651/234/86 650/234/86 618/234/86
f 606/234/86 638/234/86 637/234/86 605/234/86
f 620/234/86 652/234/86 651/234/86 619/234/86
f 607/234/86 639/234/86 638/234/86 606/234/86
f 621/234/86 653/234/86 652/234/86 620/234/86
f 608/234/86 640/234/86 639/234/86 607/234/86
f 622/234/86 654/234/86 653/234/86 621/234/86
f 609/234/86 641/234/86 640/234/86 608/234/86
f 623/234/86 655/234/86 654/234/86 622/234/86
f 610/234/86 642/234/86 641/234/86 609/234/86
f 624/234/86 656/234/86 655/234/86 623/234/86
f 611/234/86 643/234/86 642/234/86 610/234/86
f 625/234/86 657/234/86 656/234/86 624/234/86
f 612/234/86 644/234/86 643/234/86 611/234/86
f 598/234/86 630/234/86 631/234/86 599/234/86
f 626/234/86 658/234/86 657/234/86 625/234/86
f 613/234/86 645/234/86 644/234/86 612/234/86
f 600/234/86 632/234/86 630/234/86 598/234/86
f 627/234/86 659/234/86 658/234/86 626/234/86
f 614/234/86 646/234/86 645/234/86 613/234/86
f 601/234/86 633/234/86 632/234/86 600/234/86
f 628/234/86 660/234/86 659/234/86 627/234/86
f 615/234/86 647/234/86 646/234/86 614/234/86
f 602/234/86 634/234/86 633/234/86 601/234/86
f 629/234/86 661/234/86 660/234/86 628/234/86
f 616/234/86 648/234/86 647/234/86 615/234/86
f 603/234/86 635/234/86 634/234/86 602/234/86
f 599/234/86 631/234/86 661/234/86 629/234/86
f 617/234/86 649/234/86 648/234/86 616/234/86
f 604/234/86 636/234/86 635/234/86 603/234/86
f 618/234/86 650/234/86 649/234/86 617/234/86
f 567/234/95 638/234/95 639/234/95 568/234/95
f 542/234/97 613/234/97 612/234/97 541/234/97
f 568/234/95 639/234/95 640/234/95 569/234/95
f 543/234/98 614/234/98 613/234/98 542/234/98
f 569/234/95 640/234/95 641/234/95 570/234/95
f 544/234/99 615/234/99 614/234/99 543/234/99
f 570/234/95 641/234/95 642/234/95 571/234/95
f 545/234/100 616/234/100 615/234/100 544/234/100
f 592/234/95 591/234/95 663/234/95 662/234/95
f 571/234/95 642/234/95 643/234/95 572/234/95
f 546/234/101 617/234/101 616/234/101 545/234/101
f 593/234/95 592/234/95 662/234/95 664/234/95
f 572/234/102 643/234/102 644/234/102 573/234/102
f 547/234/103 618/234/103 617/234/103 546/234/103
f 594/234/95 593/234/95 664/234/95 665/234/95
f 573/234/104 644/234/104 645/234/104 574/234/104
f 548/234/105 619/234/105 618/234/105 547/234/105
f 595/234/95 594/234/95 665/234/95 666/234/95
f 574/234/104 645/234/104 646/234/104 575/234/104
f 549/234/106 620/234/106 619/234/106 548/234/106
f 596/234/95 595/234/95 666/234/95 667/234/95
f 575/234/104 646/234/104 647/234/104 576/234/104
f 550/234/107 621/234/107 620/234/107 549/234/107
f 597/234/95 596/234/95 667/234/95 668/234/95
f 576/234/104 647/234/104 648/234/104 577/234/104
f 551/234/108 622/234/108 621/234/108 550/234/108
f 577/234/94 648/234/94 649/234/94 578/234/94
f 552/234/109 623/234/109 622/234/109 551/234/109
f 578/234/92 649/234/92 650/234/92 579/234/92
f 553/234/110 624/234/110 623/234/110 552/234/110
f 579/234/92 650/234/92 651/234/92 580/234/92
f 554/234/111 625/234/111 624/234/111 553/234/111
f 528/234/112 598/234/112 599/234/112 527/234/112
f 580/234/92 651/234/92 652/234/92 581/234/92
f 555/234/113 626/234/113 625/234/113 554/234/113
f 529/234/114 600/234/114 598/234/114 528/234/114
f 581/234/92 652/234/92 653/234/92 582/234/92
f 556/234/115 627/234/115 626/234/115 555/234/115
f 530/234/116 601/234/116 600/234/116 529/234/116
f 582/234/92 653/234/92 654/234/92 583/234/92
f 557/234/117 628/234/117 627/234/117 556/234/117
f 531/234/118 602/234/118 601/234/118 530/234/118
f 583/234/92 654/234/92 655/234/92 584/234/92
f 558/234/119 629/234/119 628/234/119 557/234/119
f 532/234/120 603/234/120 602/234/120 531/234/120
f 584/234/92 655/234/92 656/234/92 585/234/92
f 527/234/121 599/234/121 629/234/121 558/234/121
f 533/234/122 604/234/122 603/234/122 532/234/122
f 585/234/92 656/234/92 657/234/92 586/234/92
f 559/234/123 631/234/123 630/234/123 560/234/123
f 534/234/124 605/234/124 604/234/124 533/234/124
f 586/234/92 657/234/92 658/234/92 587/234/92
f 560/234/123 630/234/123 632/234/123 561/234/123
f 535/234/125 606/234/125 605/234/125 534/234/125
f 587/234/92 658/234/92 659/234/92 588/234/92
f 561/234/126 632/234/126 633/234/126 562/234/126
f 536/234/127 607/234/127 606/234/127 535/234/127
f 588/234/128 659/234/128 660/234/128 589/234/128
f 562/234/95 633/234/95 634/234/95 563/234/95
f 537/234/129 608/234/129 607/234/129 536/234/129
f 589/234/123 660/234/123 661/234/123 590/234/123
f 563/234/95 634/234/95 635/234/95 564/234/95
f 538/234/130 609/234/130 608/234/130 537/234/130
f 590/234/123 661/234/123 631/234/123 559/234/123
f 564/234/95 635/234/95 636/234/95 565/234/95
f 539/234/93 610/234/93 609/234/93 538/234/93
f 565/234/95 636/234/95 637/234/95 566/234/95
f 540/234/90 611/234/90 610/234/90 539/234/90
f 566/234/95 637/234/95 638/234/95 567/234/95
f 541/234/87 612/234/87 611/234/87 540/234/87
f 729/234/92 697/234/92 698/234/92 730/234/92
f 708/234/88 676/234/88 692/234/88 724/234/88
f 707/234/87 675/234/87 676/234/87 708/234/87
f 705/234/90 673/234/90 675/234/90 707/234/90
f 731/234/92 699/234/92 697/234/92 729/234/92
f 732/234/128 700/234/128 699/234/128 731/234/128
f 717/234/126 685/234/126 686/234/126 718/234/126
f 716/234/96 684/234/96 700/234/96 732/234/96
f 719/234/95 687/234/95 685/234/95 717/234/95
f 720/234/95 688/234/95 687/234/95 719/234/95
f 715/234/117 683/234/117 684/234/117 716/234/117
f 713/234/115 681/234/115 683/234/115 715/234/115
f 509/234/132 696/234/132 680/234/132 477/234/132
f 493/234/133 688/234/133 672/234/133 461/234/133
f 484/234/113 681/234/113 682/234/113 483/234/113
f 485/234/115 683/234/115 681/234/115 484/234/115
f 459/234/116 669/234/116 670/234/116 458/234/116
f 486/234/117 684/234/117 683/234/117 485/234/117
f 499/234/95 690/234/95 689/234/95 500/234/95
f 460/234/118 671/234/118 669/234/118 459/234/118
f 500/234/95 689/234/95 691/234/95 501/234/95
f 461/234/120 672/234/120 671/234/120 460/234/120
f 458/234/131 670/234/131 686/234/131 490/234/131
f 475/234/101 677/234/101 678/234/101 474/234/101
f 501/234/102 691/234/102 692/234/102 502/234/102
f 515/234/92 698/234/92 697/234/92 516/234/92
f 476/234/103 679/234/103 677/234/103 475/234/103
f 516/234/92 697/234/92 699/234/92 517/234/92
f 477/234/105 680/234/105 679/234/105 476/234/105
f 467/234/134 674/234/134 690/234/134 499/234/134
f 490/234/126 686/234/126 685/234/126 491/234/126
f 517/234/128 699/234/128 700/234/128 518/234/128
f 710/234/101 678/234/101 677/234/101 709/234/101
f 721/234/95 689/234/95 690/234/95 722/234/95
f 723/234/95 691/234/95 689/234/95 721/234/95
f 724/234/102 692/234/102 691/234/102 723/234/102
f 726/234/89 694/234/89 678/234/89 710/234/89
f 725/234/94 693/234/94 694/234/94 726/234/94
f 704/234/133 672/234/133 688/234/133 720/234/133
f 727/234/92 695/234/92 693/234/92 725/234/92
f 703/234/120 671/234/120 672/234/120 704/234/120
f 701/234/118 669/234/118 671/234/118 703/234/118
f 728/234/92 696/234/92 695/234/92 727/234/92
f 712/234/132 680/234/132 696/234/132 728/234/132
f 588/234/92 731/234/92 729/234/92 587/234/92
f 547/234/105 711/234/105 712/234/105 548/234/105
f 570/234/134 722/234/134 706/234/134 538/234/134
f 562/234/126 717/234/126 718/234/126 561/234/126
f 589/234/128 732/234/128 731/234/128 588/234/128
f 563/234/95 719/234/95 717/234/95 562/234/95
f 557/234/96 716/234/96 732/234/96 589/234/96
f 564/234/95 720/234/95 719/234/95 563/234/95
f 578/234/94 725/234/94 726/234/94 577/234/94
f 579/234/92 727/234/92 725/234/92 578/234/92
f 538/234/93 706/234/93 705/234/93 539/234/93
f 580/234/92 728/234/92 727/234/92 579/234/92
f 586/234/91 730/234/91 714/234/91 554/234/91
f 539/234/90 705/234/90 707/234/90 540/234/90
f 577/234/89 726/234/89 710/234/89 545/234/89
f 541/234/88 708/234/88 724/234/88 573/234/88
f 540/234/87 707/234/87 708/234/87 541/234/87
f 548/234/132 712/234/132 728/234/132 580/234/132
f 532/234/133 704/234/133 720/234/133 564/234/133
f 554/234/113 714/234/113 713/234/113 555/234/113
f 722/234/134 690/234/134 674/234/134 706/234/134
f 706/234/93 674/234/93 673/234/93 705/234/93
f 711/234/105 679/234/105 680/234/105 712/234/105
f 709/234/103 677/234/103 679/234/103 711/234/103
f 730/234/91 698/234/91 682/234/91 714/234/91
f 714/234/113 682/234/113 681/234/113 713/234/113
f 718/234/131 686/234/131 670/234/131 702/234/131
f 702/234/116 670/234/116 669/234/116 701/234/116
o palos
v -0.634444 1.302356 1.234951
v -0.483380 0.700129 0.618592
v -0.626807 1.184550 1.351929
v -0.475743 0.582322 0.735569
v -0.468442 1.328324 1.250265
v -0.317378 0.726096 0.633906
v -0.460804 1.210517 1.367242
v -0.309741 0.608290 0.750883
v -0.513092 -1.264690 1.327046
v -0.420281 -0.642386 0.719163
v -0.503870 -1.381345 1.209032
v -0.411059 -0.759040 0.601150
v -0.345588 -1.270895 1.346269
v -0.252777 -0.648590 0.738386
v -0.336365 -1.387549 1.228255
v -0.243555 -0.765244 0.620373
v -0.612177 1.211214 -1.334900
v -0.469248 0.600113 -0.725372
v -0.615703 1.328139 -1.216846
v -0.472773 0.717038 -0.607319
v -0.445765 1.233287 -1.351792
v -0.302835 0.622186 -0.742264
v -0.449290 1.350212 -1.233739
v -0.306361 0.739111 -0.624211
v -0.490825 -1.355834 -1.242805
v -0.406149 -0.742402 -0.624801
v -0.492765 -1.237756 -1.359742
v -0.408089 -0.624325 -0.741738
v -0.322911 -1.365932 -1.255788
v -0.238235 -0.752501 -0.637784
v -0.324851 -1.247855 -1.372725
v -0.240175 -0.634424 -0.754721
vn -0.9839 -0.1539 -0.0908
vn 0.0460 -0.7089 0.7039
vn 0.9839 0.1539 0.0908
vn -0.0460 0.7089 -0.7039
vn -0.1727 0.6884 0.7045
vn 0.1727 -0.6884 -0.7045
vn -0.9928 0.0368 -0.1139
vn 0.0555 -0.7019 -0.7101
vn 0.9928 -0.0368 0.1139
vn -0.0555 0.7019 0.7101
vn -0.1061 -0.7113 0.6948
vn 0.1061 0.7113 -0.6948
vn -0.9863 -0.1308 0.1001
vn -0.0212 0.7035 0.7103
vn 0.9863 0.1308 -0.1001
vn 0.0212 -0.7035 -0.7103
vn -0.1634 0.6985 -0.6967
vn 0.1634 -0.6985 0.6967
vn -0.9952 0.0599 0.0770
vn -0.0117 0.7105 -0.7036
vn 0.9952 -0.0599 -0.0770
vn 0.0117 -0.7105 0.7036
vn -0.0968 -0.7012 -0.7064
vn 0.0968 0.7012 0.7064
vt 0.375000 0.000000
vt 0.625000 0.000000
vt 0.625000 0.250000
vt 0.375000 0.250000
vt 0.625000 0.500000
vt 0.375000 0.500000
vt 0.625000 0.750000
vt 0.375000 0.750000
vt 0.625000 1.000000
vt 0.375000 1.000000
vt 0.125000 0.500000
vt 0.125000 0.750000
vt 0.875000 0.500000
vt 0.875000 0.750000
s 0
f 733/235/135 734/236/135 736/237/135 735/238/135
f 735/238/136 736/237/136 740/239/136 739/240/136
f 739/240/137 740/239/137 738/241/137 737/242/137
f 737/242/138 738/241/138 734/243/138 733/244/138
f 735/245/139 739/240/139 737/242/139 733/246/139
f 740/239/140 736/247/140 734/248/140 738/241/140
f 741/235/141 742/236/141 744/237/141 743/238/141
f 743/238/142 744/237/142 748/239/142 747/240/142
f 747/240/143 748/239/143 746/241/143 745/242/143
f 745/242/144 746/241/144 742/243/144 741/244/144
f 743/245/145 747/240/145 745/242/145 741/246/145
f 748/239/146 744/247/146 742/248/146 746/241/146
f 749/235/147 750/236/147 752/237/147 751/238/147
f 751/238/148 752/237/148 756/239/148 755/240/148
f 755/240/149 756/239/149 754/241/149 753/242/149
f 753/242/150 754/241/150 750/243/150 749/244/150
f 751/245/151 755/240/151 753/242/151 749/246/151
f 756/239/152 752/247/152 750/248/152 754/241/152
f 757/235/153 758/236/153 760/237/153 759/238/153
f 759/238/154 760/237/154 764/239/154 763/240/154
f 763/240/155 764/239/155 762/241/155 761/242/155
f 761/242/156 762/241/156 758/243/156 757/244/156
f 759/245/157 763/240/157 761/242/157 757/246/157
f 764/239/158 760/247/158 758/248/158 762/241/158
o pivote1
v -0.186085 0.000000 0.000000
o pivote2
v 0.813915 0.000000 0.000000
